<svg width="180" height="180" viewBox="0 0 180 180" fill="none" xmlns="http://www.w3.org/2000/svg">
<path d="M0 77.1019C0 117.216 40.2841 156.647 90 156.647C139.716 156.647 180 121.022 180 77.1019C180 30.6246 111.591 84.3746 70 84.3746C20.2841 84.3746 0 36.8178 0 77.1019Z" fill="#F3F3F3"/>
<mask id="mask0_5820_287140" style="mask-type:luminance" maskUnits="userSpaceOnUse" x="0" y="58" width="180" height="99">
<path d="M0 77.1019C0 117.216 40.2841 156.647 90 156.647C139.716 156.647 180 121.022 180 77.1019C180 30.6246 111.591 84.3746 70 84.3746C20.2841 84.3746 0 36.8178 0 77.1019Z" fill="white"/>
</mask>
<g mask="url(#mask0_5820_287140)">
<path d="M69.8295 73.8047V138.293L36.25 148.407V83.8615L69.8295 73.8047Z" fill="#828282"/>
<path d="M143.692 83.8615V148.407L69.8281 138.293V73.8047L143.692 83.8615Z" fill="#B4B4B4"/>
<path d="M143.693 83.8633V149.659C143.693 151.42 142.557 152.954 140.852 153.466L113.466 161.704C111.307 162.386 108.977 162.556 106.761 162.216L39.7159 153.068C37.7273 152.784 36.25 151.136 36.25 149.147V83.8633L110.114 93.9201L143.693 83.8633Z" fill="#DADADA"/>
<path d="M143.691 83.8633V149.659C143.691 151.42 142.554 152.954 140.85 153.466L113.577 161.704C113.577 161.704 112.043 162.216 110.168 162.386C110.168 153.352 110.168 93.9769 110.168 93.9769L143.691 83.8633Z" fill="#828282"/>
<path d="M110.114 95.9656L101.42 107.5C100.568 108.636 99.1477 109.261 97.6704 109.034L36.25 100.681V83.8633L110.114 93.9201V95.9656Z" fill="#9B9B9B"/>
<path d="M110.113 93.9201L118.522 105.113C119.545 106.42 121.25 107.045 122.841 106.534L151.022 98.0678C152.329 97.6701 152.897 96.0792 152.045 94.9428L143.693 83.8633L110.113 93.9201Z" fill="#DADADA"/>
<path d="M110.113 93.9201L101.42 105.454C100.567 106.591 99.1468 107.216 97.6695 106.988L29.5445 97.7269C28.0672 97.4996 27.3286 95.7951 28.2377 94.5451L36.2491 83.8633L110.113 93.9201Z" fill="#DADADA"/>
</g>
<path d="M27.8971 72.7279L36.2494 83.8642L69.829 73.8074L61.4199 62.6142C60.3971 61.3074 58.6926 60.6824 57.1017 61.1938L28.9199 69.6029C27.5562 70.0006 27.0449 71.5915 27.8971 72.7279Z" fill="#DADADA"/>
<path d="M151.76 73.1241L143.692 83.8627L69.8281 73.8059L78.5213 62.2718C79.3736 61.1354 80.794 60.5104 82.2713 60.7377L150.51 70.0559C151.93 70.1695 152.669 71.9309 151.76 73.1241Z" fill="#DADADA"/>
<path d="M69.8296 73.8047V88.4638L36.25 83.8615L69.8296 73.8047Z" fill="#828282"/>
<path d="M143.692 83.8615L110.112 93.9183L69.8281 88.4638V73.8047L143.692 83.8615Z" fill="#B4B4B4"/>
<path d="M88.8626 51.9336L87.2148 66.6495" stroke="#B4B4B4" stroke-width="2" stroke-miterlimit="10"/>
<path d="M71.3636 30.2273C73.4975 30.2273 75.2273 28.4975 75.2273 26.3636C75.2273 24.2298 73.4975 22.5 71.3636 22.5C69.2298 22.5 67.5 24.2298 67.5 26.3636C67.5 28.4975 69.2298 30.2273 71.3636 30.2273Z" fill="#B4B4B4"/>
<path d="M100.453 45.9109C102.242 45.9109 103.692 44.4609 103.692 42.6722C103.692 40.8836 102.242 39.4336 100.453 39.4336C98.6648 39.4336 97.2148 40.8836 97.2148 42.6722C97.2148 44.4609 98.6648 45.9109 100.453 45.9109Z" fill="#B4B4B4"/>
<path d="M64.5469 48.3516L66.706 63.4084" stroke="#B4B4B4" stroke-width="2" stroke-miterlimit="10"/>
<path d="M46.9883 44.3164V52.3846" stroke="#B4B4B4" stroke-width="2" stroke-miterlimit="10"/>
<path d="M51.0234 48.3516H42.8984" stroke="#B4B4B4" stroke-width="2" stroke-miterlimit="10"/>
<path d="M124.945 34.5469V42.6719" stroke="#B4B4B4" stroke-width="2" stroke-miterlimit="10"/>
<path d="M128.978 38.582H120.91" stroke="#B4B4B4" stroke-width="2" stroke-miterlimit="10"/>
<path d="M40.9102 60.9648L44.9442 69.4308" stroke="#B4B4B4" stroke-width="2" stroke-miterlimit="10"/>
<path d="M117.161 57.2734L113.922 69.5462" stroke="#B4B4B4" stroke-width="2" stroke-miterlimit="10"/>
<path d="M136.362 54.0898L134.316 62.2717" stroke="#B4B4B4" stroke-width="2" stroke-miterlimit="10"/>
</svg>
